<svg xmlns="http://www.w3.org/2000/svg" xmlns:xlink="http://www.w3.org/1999/xlink" width="208" height="342.359" viewBox="0 0 208 342.359">
  <defs>
    <clipPath id="clip-path">
      <rect width="208" height="342.359" fill="none"/>
    </clipPath>
    <filter id="Polygon_1" x="23.199" y="0" width="166.739" height="200" filterUnits="userSpaceOnUse">
      <feOffset dy="3" input="SourceAlpha"/>
      <feGaussianBlur stdDeviation="5" result="blur"/>
      <feFlood flood-opacity="0.161"/>
      <feComposite operator="in" in2="blur"/>
      <feComposite in="SourceGraphic"/>
    </filter>
    <clipPath id="clip-path-2">
      <rect width="20" height="40" fill="none"/>
    </clipPath>
  </defs>
  <g id="Component_7_1" data-name="Component 7 – 1" clip-path="url(#clip-path)">
    <g transform="matrix(1, 0, 0, 1, 0, 0)" filter="url(#Polygon_1)">
      <g id="Polygon_1-2" data-name="Polygon 1" transform="translate(174.94 12) rotate(90)" fill="none" stroke-linejoin="round">
        <path d="M127.5,0,170,68.37l-42.5,68.37h-85L0,68.37,42.5,0Z" stroke="none"/>
        <path d="M 48.05838012695313 10.00000762939453 L 11.77459716796875 68.36956787109375 L 48.058349609375 126.739128112793 L 121.9416198730469 126.739128112793 L 158.2254028320313 68.36956787109375 L 121.9416198730469 10.00000762939453 L 48.05838012695313 10.00000762939453 M 42.5 0 L 127.5 0 L 170 68.36956787109375 L 127.5 136.7391357421875 L 42.49996948242188 136.7391357421875 L 0 68.36956787109375 L 42.5 0 Z" stroke="none" fill="#046ee8"/>
      </g>
    </g>
    <text id="Smart_Money" data-name="Smart 
Money" transform="translate(104 256.359)" fill="#fff" font-size="85" font-family="Oswald-Regular, Oswald"><tspan x="-103.572" y="0">Smart </tspan><tspan font-size="55"><tspan x="-64.268" y="70">Money</tspan></tspan></text>
    <g id="Component_5_1" data-name="Component 5 – 1" transform="translate(118.214 68.992) rotate(26)" clip-path="url(#clip-path-2)">
      <path id="Path_4" data-name="Path 4" d="M0,0H20V40H0V0Z" transform="translate(0 0)" fill="#046ee8"/>
      <circle id="Ellipse_1" data-name="Ellipse 1" cx="5" cy="5" r="5" transform="translate(5.065 14.008)" fill="#064c9d"/>
      <text id="_" data-name="$" transform="translate(10.065 21.008) rotate(-1)" fill="#fff" font-size="5" font-family="Roboto-Regular, Roboto"><tspan x="-1.404" y="0">$</tspan></text>
      <g id="Rectangle_12" data-name="Rectangle 12" transform="translate(1.489 1.878)" fill="none" stroke="#000" stroke-width="1">
        <rect width="17" height="37" stroke="none"/>
        <rect x="0.5" y="0.5" width="16" height="36" fill="none"/>
      </g>
    </g>
    <g id="Component_5_2" data-name="Component 5 – 2" transform="matrix(0.993, -0.122, 0.122, 0.993, 94.072, 71.719)" clip-path="url(#clip-path-2)">
      <path id="Path_4-2" data-name="Path 4" d="M0,0H20V40H0V0Z" transform="translate(0 0)" fill="#046ee8"/>
      <circle id="Ellipse_1-2" data-name="Ellipse 1" cx="5" cy="5" r="5" transform="translate(5.065 14.008)" fill="#064c9d"/>
      <text id="_2" data-name="$" transform="translate(10.065 21.008) rotate(-1)" fill="#fff" font-size="5" font-family="Roboto-Regular, Roboto"><tspan x="-1.404" y="0">$</tspan></text>
      <g id="Rectangle_12-2" data-name="Rectangle 12" transform="translate(1.489 1.878)" fill="none" stroke="#000" stroke-width="1">
        <rect width="17" height="37" stroke="none"/>
        <rect x="0.5" y="0.5" width="16" height="36" fill="none"/>
      </g>
    </g>
    <g id="Component_5_3" data-name="Component 5 – 3" transform="translate(138.756 78.691) rotate(60)" clip-path="url(#clip-path-2)">
      <path id="Path_4-3" data-name="Path 4" d="M0,0H20V40H0V0Z" transform="translate(0 0)" fill="#046ee8"/>
      <circle id="Ellipse_1-3" data-name="Ellipse 1" cx="5" cy="5" r="5" transform="translate(5.065 14.008)" fill="#064c9d"/>
      <text id="_3" data-name="$" transform="translate(10.065 21.008) rotate(-1)" fill="#fff" font-size="5" font-family="Roboto-Regular, Roboto"><tspan x="-1.404" y="0">$</tspan></text>
      <g id="Rectangle_12-3" data-name="Rectangle 12" transform="translate(1.489 1.878)" fill="none" stroke="#000" stroke-width="1">
        <rect width="17" height="37" stroke="none"/>
        <rect x="0.5" y="0.5" width="16" height="36" fill="none"/>
      </g>
    </g>
    <path id="approval_delegation_FILL1_wght300_GRAD0_opsz48" d="M43.51,69.167,17.866,61.98V38.68h7.978L46.2,46.025a6.921,6.921,0,0,1,3.175,2.211,7.18,7.18,0,0,1,1.3,4.66H46.767a53.6,53.6,0,0,1-5.739-.237A20.686,20.686,0,0,1,37,51.791l-5.943-1.975-.814,2.133,6.35,2.133a19.756,19.756,0,0,0,4.07.79,46.454,46.454,0,0,0,4.64.237H60.932q3.663,0,5.129,1.619a5.833,5.833,0,0,1,1.465,4.068V61.98ZM3.05,66.245V38.68H14.04V66.245Z" transform="translate(71.45 51.509)" fill="#fff" stroke="#000" stroke-width="1"/>
  </g>
</svg>
