<?xml version="1.0" standalone="no"?>
<!DOCTYPE svg PUBLIC "-//W3C//DTD SVG 20010904//EN"
 "http://www.w3.org/TR/2001/REC-SVG-20010904/DTD/svg10.dtd">
<svg version="1.0" xmlns="http://www.w3.org/2000/svg"
 width="150px" height="60px" viewBox="0 0 370.000000 100.000000"
 preserveAspectRatio="xMidYMid meet">

<g transform="translate(0.000000,100.000000) scale(0.100000,-0.100000)"
fill="#b613f7" stroke="none">
<path d="M418 846 c-78 -34 -135 -131 -145 -245 -5 -57 -1 -79 26 -157 17 -50
31 -103 31 -118 0 -35 39 -54 75 -38 18 9 25 19 25 41 0 31 -13 47 -45 53 -53
9 -85 209 -50 309 39 109 154 161 236 106 37 -25 79 -90 79 -123 0 -23 18 -44
37 -44 19 0 16 31 -7 85 -30 69 -57 103 -100 125 -44 23 -119 25 -162 6z"/>
<path d="M1258 693 c-16 -4 -18 -20 -18 -159 l0 -154 30 0 30 0 0 60 c0 57 1
60 24 60 19 0 33 -13 62 -60 33 -54 40 -60 70 -60 19 0 34 3 34 8 0 4 -16 31
-35 61 -19 29 -35 55 -35 58 0 3 11 14 25 25 20 15 25 28 25 63 0 50 -20 78
-69 94 -33 11 -109 13 -143 4z m144 -75 c21 -34 -14 -68 -69 -68 -32 0 -33 1
-33 44 0 34 4 45 18 48 24 6 74 -9 84 -24z"/>
<path d="M1520 670 c0 -29 2 -30 45 -30 l45 0 0 -130 0 -130 35 0 35 0 0 130
0 130 45 0 c43 0 45 1 45 30 l0 30 -125 0 -125 0 0 -30z"/>
<path d="M1830 540 l0 -160 30 0 30 0 0 72 0 72 35 -34 c19 -19 47 -51 61 -72
23 -33 32 -38 66 -38 l39 0 -33 46 c-18 26 -49 65 -69 88 l-36 41 65 70 65 70
-38 3 c-35 3 -42 -1 -96 -60 l-58 -63 -1 63 0 62 -30 0 -30 0 0 -160z"/>
<path d="M2314 683 c-98 -49 -98 -240 0 -287 18 -9 39 -16 44 -16 6 0 13 -8
17 -17 9 -29 54 -55 101 -61 40 -4 44 -3 44 17 0 22 -4 25 -52 35 -37 8 -35
28 4 46 101 47 95 243 -8 286 -43 18 -111 17 -150 -3z m133 -62 c41 -38 38
-135 -5 -167 -9 -8 -34 -14 -54 -14 -50 0 -78 35 -78 100 0 65 28 100 79 100
23 0 45 -7 58 -19z"/>
<path d="M412 618 c-28 -28 -3 -88 36 -88 10 0 28 7 41 16 51 36 207 -10 284
-84 76 -73 98 -161 56 -229 -33 -52 -70 -67 -159 -60 -52 3 -81 1 -93 -8 -15
-10 -12 -13 21 -23 73 -21 101 -23 143 -12 59 16 113 55 132 95 22 47 21 130
-2 180 -47 101 -181 187 -303 193 -41 3 -72 10 -79 18 -14 17 -61 18 -77 2z"/>
<path d="M2610 525 c0 -88 2 -98 25 -120 20 -21 34 -25 84 -25 94 0 91 -4 91
126 l0 114 -30 0 -30 0 0 -95 0 -95 -28 0 c-44 0 -52 16 -52 107 l0 83 -30 0
-30 0 0 -95z"/>
<path d="M2904 586 c-30 -30 -34 -40 -34 -86 0 -46 4 -56 34 -86 33 -33 38
-35 98 -32 60 3 63 4 66 29 3 26 2 26 -46 21 -42 -4 -53 -1 -73 19 l-24 24 83
3 c80 3 82 3 82 28 0 37 -25 91 -48 103 -12 6 -39 11 -62 11 -34 0 -48 -6 -76
-34z m116 -35 c15 -30 14 -31 -40 -31 -54 0 -55 1 -40 31 7 12 21 19 40 19 19
0 33 -7 40 -19z"/>
<path d="M3168 613 c-16 -4 -18 -18 -18 -119 l0 -114 30 0 30 0 0 96 0 96 40
-4 c26 -2 40 1 40 8 0 7 3 19 6 28 5 14 -3 16 -52 15 -33 -1 -67 -3 -76 -6z"/>
<path d="M3330 613 c0 -5 20 -57 45 -118 40 -101 43 -111 28 -127 -9 -10 -29
-18 -45 -18 -23 0 -28 -4 -28 -25 0 -22 4 -25 38 -25 53 0 80 23 115 99 29 65
77 196 77 213 0 4 -13 8 -29 8 -28 0 -31 -4 -52 -75 -12 -41 -26 -75 -30 -75
-5 0 -19 34 -31 75 -22 74 -23 75 -55 75 -18 0 -33 -3 -33 -7z"/>
<path d="M197 490 c-74 -59 -100 -194 -52 -275 68 -117 284 -109 419 16 26 23
56 59 68 80 12 21 30 41 40 45 22 7 35 51 21 73 -13 21 -60 26 -80 10 -11 -9
-13 -23 -9 -50 8 -49 -31 -102 -114 -157 -122 -82 -235 -83 -302 -4 -52 62
-45 139 19 213 20 23 28 40 24 52 -6 17 -8 17 -34 -3z"/>
</g>
</svg>
